<?xml version="1.0" encoding="UTF-8" standalone="no"?>
<!-- Created with Inkscape (http://www.inkscape.org/) -->

<svg
   xmlns:dc="http://purl.org/dc/elements/1.1/"
   xmlns:cc="http://creativecommons.org/ns#"
   xmlns:rdf="http://www.w3.org/1999/02/22-rdf-syntax-ns#"
   xmlns:svg="http://www.w3.org/2000/svg"
   xmlns="http://www.w3.org/2000/svg"
   xmlns:sodipodi="http://sodipodi.sourceforge.net/DTD/sodipodi-0.dtd"
   xmlns:inkscape="http://www.inkscape.org/namespaces/inkscape"
   width="210mm"
   height="297mm"
   viewBox="0 0 210 297"
   version="1.1"
   id="svg8"
   inkscape:version="0.92.3 (2405546, 2018-03-11)"
   sodipodi:docname="profile.svg"
   inkscape:export-filename="C:\rekoportal\rekoportal-frontend\src\assets\profile.svg.png"
   inkscape:export-xdpi="96"
   inkscape:export-ydpi="96">
  <defs
     id="defs2" />
  <sodipodi:namedview
     id="base"
     pagecolor="#ffffff"
     bordercolor="#666666"
     borderopacity="1.0"
     inkscape:pageopacity="0.0"
     inkscape:pageshadow="2"
     inkscape:zoom="0.35"
     inkscape:cx="93.764539"
     inkscape:cy="733.3591"
     inkscape:document-units="mm"
     inkscape:current-layer="layer1"
     showgrid="false"
     inkscape:snap-global="false"
     inkscape:window-width="1366"
     inkscape:window-height="705"
     inkscape:window-x="1912"
     inkscape:window-y="315"
     inkscape:window-maximized="1" />
  <metadata
     id="metadata5">
    <rdf:RDF>
      <cc:Work
         rdf:about="">
        <dc:format>image/svg+xml</dc:format>
        <dc:type
           rdf:resource="http://purl.org/dc/dcmitype/StillImage" />
        <dc:title></dc:title>
      </cc:Work>
    </rdf:RDF>
  </metadata>
  <g
     inkscape:label="Layer 1"
     inkscape:groupmode="layer"
     id="layer1">
    <rect
       style="fill:#cccccc;fill-opacity:1;stroke:none;stroke-width:0.28569573"
       id="rect907"
       width="194.3631"
       height="194.3631"
       x="-0.25479269"
       y="20.310301"
       ry="0" />
    <path
       style="fill:#6e6e6e;fill-opacity:1;stroke-width:0.26458332"
       d="m 14.108422,214.36934 c -0.0972,-0.0972 -0.17681,-1.04065 -0.17681,-2.09646 v -1.91966 l 1.12448,-0.96755 c 1.62156,-1.39523 5.1688,-3.54365 10.91406,-6.61017 9.82659,-5.24493 11.83161,-6.16689 28.154215,-12.94603 5.443876,-2.26097 10.188198,-4.38164 10.542933,-4.71261 0.940909,-0.87786 1.415593,-1.94572 3.090183,-6.95176 1.587574,-4.7459 2.094481,-5.59835 3.83006,-6.44089 1.504588,-0.73041 1.818302,-1.43512 2.256311,-5.06848 0.219287,-1.81901 0.477737,-4.62106 0.574334,-6.22678 0.196961,-3.27405 0.103854,-3.59141 -1.789271,-6.09884 -0.793144,-1.05051 -1.018138,-1.58628 -1.018138,-2.42446 0,-0.59177 -0.47625,-2.83913 -1.058333,-4.99412 -1.04416,-3.86569 -1.279748,-5.29471 -0.826739,-5.01473 0.127376,0.0787 0.743601,1.00848 1.369388,2.06613 1.401498,2.3687 3.703434,4.67414 5.587339,5.59584 1.577578,0.77184 4.830587,1.47788 6.924016,1.5028 0.751184,0.009 2.186254,0.15835 3.189046,0.33202 l 1.82326,0.31575 0.328824,1.11366 c 0.502028,1.70027 1.561952,3.32896 3.018909,4.63889 2.027235,1.82266 2.949334,2.18238 5.594204,2.18238 2.065418,0 2.386468,-0.0722 3.566977,-0.80204 1.68011,-1.03873 3.64778,-3.49681 4.42181,-5.52385 l 0.61224,-1.60332 1.84067,-0.31862 c 1.01237,-0.17523 2.49552,-0.32799 3.29589,-0.33946 5.44619,-0.078 9.539,-2.46153 12.38677,-7.21353 0.6785,-1.13221 1.33467,-2.05856 1.45815,-2.05856 0.32105,0 -0.0201,1.77352 -1.04319,5.42396 -0.48944,1.74625 -0.89331,3.41313 -0.8975,3.70417 -0.004,0.29104 -0.35846,1.04688 -0.78726,1.67963 -1.94022,2.86302 -2.44399,5.60232 -2.33559,12.69998 l 0.0822,5.37955 1.3666,1.23292 c 1.66063,1.49819 1.64564,1.46887 3.30382,6.46161 1.74822,5.26386 2.31357,6.35239 3.7284,7.17871 0.6194,0.36175 3.03118,1.38681 5.35951,2.27789 10.9951,4.20799 23.29906,9.52118 33.25671,14.36118 6.4657,3.1427 8.94997,4.62639 11.13814,6.65209 l 1.26777,1.17364 -0.0771,2.2014 -0.0772,2.2014 -82.571623,0.0666 c -45.414397,0.0366 -82.651195,-0.013 -82.748435,-0.11025 z m 81.567411,-58.76131 c -1.894345,-0.98962 -2.747269,-2.26369 -3.497318,-5.22418 l -0.603294,-2.38125 -2.904617,-0.19757 c -6.982635,-0.47496 -8.384733,-0.68735 -10.100585,-1.53008 -2.599817,-1.27688 -4.502565,-3.80225 -6.584873,-8.7396 -1.292516,-3.06467 -1.806096,-5.90838 -1.595885,-8.83647 0.324898,-4.52559 1.190961,-7.00978 3.019859,-8.66208 2.144075,-1.93704 3.7748,-1.95114 9.399788,-0.0813 1.971916,0.65551 3.777284,1.19184 4.011933,1.19184 1.033838,0 1.972355,-0.82972 2.76561,-2.44501 1.113456,-2.26731 1.652283,-5.22819 1.697696,-9.32895 0.03972,-3.58722 -0.239371,-4.92442 -1.110615,-5.32116 -0.780531,-0.35543 -10.078587,-0.4284 -15.652336,-0.12283 -5.749973,0.31523 -8.237178,0.69378 -9.350243,1.42309 -1.224671,0.80244 -1.366824,1.95058 -1.349555,10.90007 0.02522,13.07127 1.191819,24.53082 3.280868,32.22825 0.426828,1.57272 0.710149,3.03124 0.6296,3.24114 -0.08055,0.20991 -0.449805,0.38165 -0.820571,0.38165 -1.976416,0 -4.828992,-5.50328 -6.651495,-12.83229 -1.763681,-7.09246 -3.249861,-21.77106 -3.294991,-32.54375 -0.02743,-6.54889 -0.008,-6.68647 2.340403,-16.536454 1.908829,-8.006393 2.892198,-12.84382 3.576733,-17.594793 1.0727,-7.445002 1.737048,-8.408361 7.935084,-11.506491 1.527969,-0.763765 3.55864,-1.842498 4.512604,-2.397184 0.953965,-0.554685 2.918496,-1.478084 4.365624,-2.051994 2.415966,-0.958138 10.071079,-3.546834 12.754602,-4.313168 0.620191,-0.177108 1.234763,-0.451574 1.365713,-0.609923 0.13095,-0.158349 0.281935,-3.919314 0.335518,-8.357699 0.11312,-9.369729 0.196548,-9.789927 2.054228,-10.346501 1.397341,-0.418654 2.828653,-0.07591 3.508233,0.840075 0.698419,0.941396 0.985419,4.30638 0.994219,11.656842 0.005,4.471333 0.0909,6.050828 0.3379,6.239515 0.1819,0.138953 3.36656,1.246684 7.07701,2.461625 4.92357,1.612161 7.60426,2.651066 9.92188,3.845226 10.20484,5.258102 10.48072,5.425292 11.71743,7.101141 0.85747,1.161945 1.53732,3.565676 2.03758,7.204155 0.62832,4.56991 1.54039,9.096386 3.45923,17.167715 2.44808,10.297516 2.58246,11.377353 2.40357,19.314583 -0.2304,10.22305 -1.43081,22.41754 -2.83892,28.83958 -0.8266,3.76991 -2.04258,7.47584 -3.29896,10.05417 -1.29573,2.65911 -2.366,3.99114 -3.41922,4.25548 -1.35065,0.33899 -1.38465,-0.11898 -0.32106,-4.32416 1.09477,-4.32843 1.55692,-7.07297 2.14926,-12.76361 1.31674,-12.64996 1.47184,-26.53969 0.32119,-28.76481 -0.47044,-0.90971 -1.18398,-1.27023 -3.25859,-1.64643 -3.49463,-0.6337 -18.19863,-1.0732 -21.36859,-0.63871 -1.83853,0.252 -2.11311,0.81685 -2.22627,4.57979 -0.14899,4.9545 0.8843,9.63682 2.57292,11.65915 0.67674,0.81048 0.90623,0.91566 1.92185,0.88082 0.63434,-0.0217 2.64162,-0.55061 4.46063,-1.17523 2.64538,-0.90838 3.68643,-1.13875 5.2017,-1.15106 1.69502,-0.0138 2.01527,0.0692 3.04271,0.78865 2.1417,1.49965 3.11459,3.7554 3.64899,8.4606 0.54371,4.78712 -1.17379,10.49054 -4.6239,15.35489 -2.26654,3.19562 -4.30968,3.98141 -11.35119,4.36565 -3.14127,0.17142 -4.87448,0.37188 -5.0717,0.58657 -0.16479,0.17939 -0.43592,1.03584 -0.60252,1.90323 -0.60633,3.15678 -2.48835,5.59879 -4.680425,6.07308 -0.61119,0.13224 -1.162693,-0.009 -2.244442,-0.57389 z m 31.011817,-34.18489 c -0.5108,-1.46527 -2.45132,-3.93382 -3.84429,-4.89033 -3.10471,-2.13192 -5.6429,-2.23745 -10.91618,-0.45384 -3.09347,1.04632 -3.14935,1.05486 -3.58525,0.54777 -0.58682,-0.68265 -1.20749,-3.50389 -1.43317,-6.51446 -0.18136,-2.41923 -0.17803,-2.43826 0.47927,-2.73774 3.11921,0.4437 6.95417,-0.19852 9.72065,-0.0254 2.11579,0.16282 4.95258,0.36204 6.30399,0.44272 3.91628,0.23382 3.65781,-0.0712 3.88217,4.58142 0.13602,2.82074 0.0967,4.38793 -0.13613,5.42843 -0.26329,1.1765 -0.26049,1.70169 0.0143,2.68324 0.41194,1.47132 -0.0131,2.29279 -0.4854,0.93804 z M 67.4017,119.49126 c -0.154998,-3.50767 -0.13666,-6.12525 0.05884,-8.39803 0.09388,-1.09141 0.173116,-2.12902 0.17609,-2.3058 0.01127,-0.66987 1.248193,-0.91611 6.042827,-1.20297 5.687073,-0.34025 7.872923,-0.35548 9.639077,-0.0672 0.814232,0.13292 1.675307,0.088 2.445605,-0.12772 1.604375,-0.4492 1.988939,-0.12151 1.978056,1.68552 -0.0173,2.87359 -0.720031,6.77447 -1.375481,7.63535 -0.308843,0.40564 -0.593961,0.35464 -3.51114,-0.6281 -3.907615,-1.31639 -6.282322,-1.56764 -8.359012,-0.88438 -2.653385,0.87299 -4.937213,2.90791 -6.134563,5.46596 -0.323221,0.69054 -0.647205,1.25928 -0.719966,1.26388 -0.07276,0.005 -0.180909,-1.09186 -0.240329,-2.43655 z"
       id="path920"
       inkscape:connector-curvature="0"
       sodipodi:nodetypes="ssccsccscsscssccccccsssccccccscccccsscccscccscscccscssscssccscsscssscsscssssscccscssssscscscscsscscccscccsccccscccccscccccssscccscccccc" />
  </g>
</svg>
